<svg width="109" height="177" viewBox="0 0 109 177" fill="none" xmlns="http://www.w3.org/2000/svg">
<circle cx="54.5" cy="122.5" r="50.5" stroke="white" stroke-width="8"/>
<path fill-rule="evenodd" clip-rule="evenodd" d="M102.873 98.7171L97.8813 100.813L92.121 103.232L96.0492 108.09L96.1068 108.161L92.121 111.573V125.224L85.3452 129.395V132.483V137.357L87.077 139.829L87.3594 140.232L89.331 143.045L88.9324 146.837L85.5912 145.666L83.271 144.853L83.1137 144.797L81.3594 144.183V142.125V140.151V137.357L79.3452 136.559L76.5765 135.462L69.8007 137.357H57.0463L50.669 145.699L57.5831 154.783L59.0391 156.695L69.8007 152.904L60.2984 160.269L60.1897 160.354L59.0391 161.246L59.4359 162.917L61.8292 173L54.2659 162.379L53.4591 161.246L52.8373 161.098L34.6256 156.766L34.3274 156.695L32.5873 152.005L29.9081 144.784L28.6187 141.308L27.153 137.357L26.3772 138.957L26.0845 139.56L25.1295 141.528L24.7616 142.287L26.0292 147.283L27.3802 152.607L27.5516 153.283H26.6617H25.9573L21.1699 143.198L20.3772 141.528V140.16V137.578V135.462L14 128.257L20.3772 103.232L14 88.7797L32.4285 74.0879L60.1954 72.4556L67.9466 72L63.3788 78.2789L59.0391 84.244L61.8292 93.517H69.8007L74.8657 75.5326H82.1147C82.3044 77.6141 82.7253 79.6239 83.3498 81.5326H79.4093L75.576 95.1436L74.3443 99.517H69.8007H61.8292H57.3687L56.0836 95.2458L53.2936 85.9727L52.4358 83.1218L54.1872 80.7143L55.6275 78.7345L34.6806 79.9658L21.3563 90.5884L25.8665 100.809L26.7031 102.705L26.1914 104.713L20.5989 126.66L23.8774 130.363L27.8896 122.093L32.7784 135.27L38.8368 151.601L49.5622 154.151L45.8948 149.333L43.1226 145.691L45.9024 142.055L52.2796 133.713L54.0807 131.357H57.0463H68.9771L74.9598 129.684L76.9074 129.139L78.7875 129.884L79.3452 130.105V129.395V126.043L82.1999 124.285L86.121 121.872V111.573V108.812L87.7732 107.397L87.4554 107.004L82.4325 100.792L89.7982 97.6995L94.5514 95.7037C97.0821 97.2068 99.8899 98.2473 102.873 98.7171Z" fill="white"/>
<path d="M52.1716 63.8284C53.7337 65.3905 56.2663 65.3905 57.8284 63.8284L83.2843 38.3726C84.8464 36.8105 84.8464 34.2778 83.2843 32.7157C81.7222 31.1536 79.1895 31.1536 77.6274 32.7157L55 55.3431L32.3726 32.7157C30.8105 31.1536 28.2778 31.1536 26.7157 32.7157C25.1536 34.2778 25.1536 36.8105 26.7157 38.3726L52.1716 63.8284ZM51 -2.68185e-09L51 61L59 61L59 2.68185e-09L51 -2.68185e-09Z" fill="white"/>
</svg>
